<?xml version="1.0" encoding="UTF-8"?>
<svg width="42px" height="53px" viewBox="0 0 42 53" version="1.1" xmlns="http://www.w3.org/2000/svg" xmlns:xlink="http://www.w3.org/1999/xlink">
    <title>clipboard</title>
    <g id="Page-1" stroke="none" stroke-width="1" fill="none" fill-rule="evenodd">
        <g id="Drop-Down" transform="translate(-366.000000, -683.000000)" fill="#FFFFFF" fill-rule="nonzero">
            <g id="clipboard" transform="translate(366.472424, 683.993618)">
                <path d="M35.6455854,6.81126889 L30.942369,6.81126889 L30.942369,4.70722333 C30.942369,4.02648529 30.1997995,3.71709121 29.5190615,3.71709121 L25.8679271,3.71709121 C25.0015763,1.24170169 22.8355809,0.00400692931 20.3601913,0.00400692931 C17.9120456,-0.0880295172 15.6852847,1.41310032 14.8524556,3.71709121 L11.2631526,3.71709121 C10.5824146,3.71709121 9.90167654,4.02648529 9.90167654,4.70722333 L9.90167654,6.81126889 L5.19834169,6.81126889 C2.41118907,6.8410001 0.131006834,9.03968802 0,11.8238794 L0,47.2837336 C0,50.0066857 2.47538952,51.98695 5.19834169,51.98695 L35.6455854,51.98695 C38.3685376,51.98695 40.8439271,50.0066857 40.8439271,47.2837336 L40.8439271,11.8239978 C40.7129203,9.03968802 38.432738,6.8410001 35.6455854,6.81126889 Z M12.3769476,6.19248073 L15.7806378,6.19248073 C16.3747882,6.11998871 16.8520273,5.66797959 16.9565011,5.07856729 C17.3229886,3.48255818 18.7231982,2.33689987 20.3601913,2.29378369 C21.9820228,2.34294087 23.3611481,3.49215272 23.7019317,5.07856729 C23.8129203,5.68835317 24.3216674,6.14616638 24.9396264,6.19248073 L28.4670979,6.19248073 L28.4670979,11.1432598 L12.3769476,11.1432598 L12.3769476,6.19248073 Z M38.3685376,47.283852 C38.3685376,48.6453281 37.0070615,49.5116789 35.6455854,49.5116789 L5.19834169,49.5116789 C3.8368656,49.5116789 2.47538952,48.6453281 2.47538952,47.283852 L2.47538952,11.8239978 C2.60165831,10.4068498 3.77574487,9.31271764 5.19834169,9.28665841 L9.90155809,9.28665841 L9.90155809,12.4429044 C9.96694305,13.1363167 10.5674897,13.6550138 11.2630342,13.6187677 L29.5189431,13.6187677 C30.2272802,13.6575012 30.8466606,13.1459113 30.9422506,12.4429044 L30.9422506,9.28665841 L35.645467,9.28665841 C37.0679453,9.31271764 38.2421503,10.4067313 38.3685376,11.8238794 L38.3685376,47.283852 L38.3685376,47.283852 Z" id="Shape"></path>
                <path d="M15.6568565,27.6664671 C15.1926469,27.1771459 14.4220046,27.1495468 13.9240364,27.6046356 L9.96338952,31.3795513 L8.29251936,29.6467313 C7.82830979,29.1574101 7.05766743,29.1299295 6.55969932,29.5848999 C6.08032802,30.0871322 6.08032802,30.877319 6.55969932,31.3795513 L9.09692027,33.9787222 C9.31652847,34.2246265 9.63374032,34.3606083 9.96327107,34.3500662 C10.2897221,34.3454466 10.6011298,34.2119523 10.8296219,33.9787222 L15.6566196,29.3992871 C16.1351617,28.9603076 16.1671435,28.2164352 15.7280456,27.7380115 C15.7055399,27.7130183 15.6817312,27.6892097 15.6568565,27.6664671 Z" id="Path"></path>
                <path d="M33.4177585,30.3274693 L19.184328,30.3274693 C18.5007472,30.3274693 17.9466333,30.8815832 17.9466333,31.5651641 C17.9466333,32.248745 18.5007472,32.8028589 19.184328,32.8028589 L33.4177585,32.8028589 C34.1013394,32.8028589 34.6554533,32.248745 34.6554533,31.5651641 C34.6554533,30.8815832 34.1013394,30.3274693 33.4177585,30.3274693 Z" id="Path"></path>
                <path d="M15.6568565,17.764909 C15.1926469,17.2755878 14.4220046,17.2479887 13.9240364,17.7030775 L9.96338952,21.4779933 L8.29251936,19.7451732 C7.82830979,19.255852 7.05766743,19.2282529 6.55969932,19.6833418 C6.08032802,20.1855741 6.08032802,20.9757609 6.55969932,21.4779933 L9.09692027,24.0771641 C9.31652847,24.3230684 9.63374032,24.4590502 9.96327107,24.4485081 C10.2897221,24.4438885 10.6011298,24.3103942 10.8296219,24.0771641 L15.6566196,19.497729 C16.1351617,19.0587495 16.1671435,18.3148771 15.7280456,17.8364534 C15.7055399,17.8114602 15.6817312,17.7876516 15.6568565,17.764909 Z" id="Path"></path>
                <path d="M33.4177585,20.4259113 L19.184328,20.4259113 C18.5007472,20.4259113 17.9466333,20.9800252 17.9466333,21.663606 C17.9466333,22.3471869 18.5007472,22.9013008 19.184328,22.9013008 L33.4177585,22.9013008 C34.1013394,22.9013008 34.6554533,22.3471869 34.6554533,21.663606 C34.6554533,20.9800252 34.1013394,20.4259113 33.4177585,20.4259113 Z" id="Path"></path>
                <path d="M15.6568565,37.5679067 C15.1926469,37.0785855 14.4220046,37.0511049 13.9240364,37.5060753 L9.96338952,41.280991 L8.29251936,39.5481709 C7.82830979,39.0588498 7.05766743,39.0313691 6.55969932,39.4863395 C6.08032802,39.9885718 6.08032802,40.7787586 6.55969932,41.280991 L9.09692027,43.8801618 C9.31652847,44.1260662 9.63374032,44.2620479 9.96327107,44.2515058 C10.2897221,44.2468862 10.6011298,44.1133919 10.8296219,43.8801618 L15.6566196,39.3007267 C16.1351617,38.8617472 16.1671435,38.1178748 15.7280456,37.6394511 C15.7055399,37.6145764 15.6817312,37.5907677 15.6568565,37.5679067 Z" id="Path"></path>
                <path d="M33.4177585,40.2290274 L19.184328,40.2290274 C18.5007472,40.2290274 17.9466333,40.7831413 17.9466333,41.4667222 C17.9466333,42.1503031 18.5007472,42.704417 19.184328,42.704417 L33.4177585,42.704417 C34.1013394,42.704417 34.6554533,42.1503031 34.6554533,41.4667222 C34.6554533,40.7831413 34.1013394,40.2290274 33.4177585,40.2290274 Z" id="Path"></path>
            </g>
        </g>
    </g>
</svg>